<?xml version="1.0" encoding="UTF-8"?><svg width="100%" height="100%" viewBox="0 0 48 46" version="1.1" xmlns="http://www.w3.org/2000/svg"><title>71E14238-72D9-48E7-A7CE-32E1F74BF8BC</title><g id="Users-app" stroke="none" stroke-width="1" fill="none" fill-rule="evenodd"><g id="Users-–-list-–-snackbar" transform="translate(-47.000000, -7.000000)" fill="#FFFFFF" fill-rule="nonzero" stroke="#FFFFFF"><g id="Header"><path d="M68.03 29.087a.43.43 0 0 1 .5-.014c.865.594 1.67 1.33 2.39 2.193a.325.325 0 0 1 .028.388c-2.557 4.04-3.188 9.223-3.269 12.861a40.764 40.764 0 0 0 .246 5.472c.022.18-.11.344-.306.384C62.25 51.452 57.362 52 53.092 52c-1.242 0-2.479-.051-3.678-.152-.17-.015-.31-.124-.348-.272-.115-.434-2.763-10.72.746-17.89.714-1.46 1.645-2.698 2.77-3.68a.434.434 0 0 1 .495-.044c2.03 1.197 4.391 1.83 6.83 1.83 2.981 0 5.866-.96 8.123-2.705zm-17.897 5.798c-2.521 6.287-.72 14.73-.355 16.28 1.084.083 2.198.125 3.316.125 4.121 0 8.833-.52 14.013-1.542a41.653 41.653 0 0 1-.22-4.93c-.166-.023-.326-.048-.49-.07l-.372-.054a55.497 55.497 0 0 1-.724-.118c-.1-.017-.2-.032-.298-.05a43.58 43.58 0 0 1-.85-.161c-.043-.008-.087-.015-.13-.025a36.877 36.877 0 0 1-.96-.21c-.02-.003-.037-.009-.054-.012a31.076 31.076 0 0 1-.843-.21l-.247-.068a25.024 25.024 0 0 1-.612-.171c-.098-.029-.191-.06-.287-.088a28.2 28.2 0 0 1-.536-.167l-.295-.1-.49-.17-.292-.11a19.692 19.692 0 0 1-.457-.174l-.285-.116a14.04 14.04 0 0 1-.43-.183l-.27-.12a38.833 38.833 0 0 1-.665-.314 19.087 19.087 0 0 1-.406-.207c-.074-.038-.15-.076-.223-.116-.142-.078-.283-.158-.42-.236-.058-.035-.118-.067-.175-.1-.18-.104-.355-.21-.525-.319-.013-.01-.026-.017-.038-.025a18.62 18.62 0 0 1-.538-.357c-.04-.029-.08-.06-.121-.088-.128-.091-.255-.183-.379-.274l-.168-.131c-.102-.08-.204-.158-.301-.238-.062-.05-.12-.1-.179-.149-.09-.074-.178-.148-.263-.224-.06-.053-.12-.107-.177-.16a12.341 12.341 0 0 1-.627-.607l-.16-.167a9.692 9.692 0 0 1-.203-.223c-.051-.055-.1-.112-.15-.168a9.08 9.08 0 0 1-.19-.228c-.047-.055-.092-.11-.137-.165l-.182-.238c-.039-.054-.081-.105-.12-.158a9.838 9.838 0 0 1-.184-.261c-.032-.046-.066-.09-.096-.135a12.575 12.575 0 0 1-.244-.377c-.011-.019-.024-.038-.034-.057a12.812 12.812 0 0 1-.292-.5c-.048-.084-.093-.17-.138-.254l-.14-.28-.055-.113a6.124 6.124 0 0 1-.079-.172l-.098-.22c-.025-.057-.049-.115-.072-.172-.02-.04-.036-.081-.053-.123zm25.187-5.806a.346.346 0 0 1 .437-.002 10.85 10.85 0 0 0 5.822 2.352 10.856 10.856 0 0 0 7.372-1.982.347.347 0 0 1 .44.03c4.5 4.232 4.782 12.392 4.553 16.877-.08 1.538-.215 2.513-.22 2.554a.351.351 0 0 1-.266.293C93.383 49.219 85.859 51 77.984 51c-2.767 0-5.255-.211-7.4-.628a.349.349 0 0 1-.28-.296c-.066-.481-1.585-11.842 2.84-18.545.639-.966 1.37-1.792 2.176-2.452zm-2.118 3.712c-3.31 6.015-2.425 15.304-2.237 16.94 2.045.377 4.406.567 7.022.567 7.016 0 13.75-1.427 15.076-1.725.04-.336.11-1.01.17-1.907-.28-.02-.549-.044-.822-.068-.173-.015-.353-.027-.525-.044a39.426 39.426 0 0 1-1.147-.13l-.314-.036c-.476-.064-.94-.134-1.39-.21l-.252-.048a36.227 36.227 0 0 1-1.053-.204c-.146-.03-.284-.066-.428-.098-.273-.062-.546-.124-.807-.19-.155-.04-.307-.083-.46-.125a23.754 23.754 0 0 1-.702-.198c-.156-.047-.307-.096-.458-.145-.217-.07-.432-.14-.641-.213-.148-.051-.293-.106-.437-.159a21.768 21.768 0 0 1-1.564-.645c-.13-.06-.26-.119-.387-.18-.18-.088-.353-.176-.525-.265-.117-.062-.237-.124-.351-.187-.172-.094-.338-.192-.504-.288-.105-.063-.212-.123-.312-.185-.172-.106-.335-.215-.5-.323-.085-.058-.175-.113-.259-.171-.19-.13-.372-.264-.551-.398-.049-.038-.103-.074-.151-.112a17.512 17.512 0 0 1-.654-.532c-.032-.028-.06-.056-.092-.083-.175-.15-.344-.303-.506-.458-.064-.06-.123-.122-.185-.183-.123-.12-.249-.243-.364-.368-.068-.07-.13-.141-.195-.213a17.016 17.016 0 0 1-.306-.347c-.066-.075-.127-.153-.189-.228a11.173 11.173 0 0 1-.445-.573 12.405 12.405 0 0 1-.239-.336c-.054-.081-.108-.16-.16-.24a16.706 16.706 0 0 1-.213-.335L75 37.91a8.68 8.68 0 0 1-.193-.338c-.043-.077-.086-.154-.127-.232a14.92 14.92 0 0 1-.173-.345c-.038-.074-.075-.147-.109-.22a12.1 12.1 0 0 1-.162-.363l-.086-.196c-.058-.14-.11-.277-.163-.413l-.054-.138a14.312 14.312 0 0 1-.187-.54l-.026-.088a22.71 22.71 0 0 1-.13-.436c-.02-.06-.032-.118-.05-.179-.03-.111-.06-.22-.085-.33-.017-.066-.03-.13-.045-.196-.022-.1-.045-.2-.065-.296-.014-.066-.025-.13-.038-.196a7.831 7.831 0 0 1-.05-.276c-.011-.064-.023-.128-.032-.192-.01-.05-.017-.098-.024-.145zm2.347-2.986a10.78 10.78 0 0 0-1.766 2.016l.011.136c.006.062.011.125.019.189.01.07.017.141.026.213l.026.202c.01.075.023.152.034.228.011.07.02.141.033.213l.045.24c.013.075.028.149.043.224.017.083.038.168.056.253l.054.232c.021.088.045.177.07.266l.065.237c.026.091.056.183.084.276.026.08.049.162.077.243.031.094.067.19.1.285.03.081.058.164.09.247.038.098.079.196.118.294.034.083.067.166.103.25.043.1.09.2.136.301.04.083.075.166.116.249.05.102.106.208.16.311.042.081.083.162.128.245.06.108.123.214.185.321l.142.242c.067.109.14.216.21.326.051.08.1.156.154.236.076.11.16.224.243.335l.082.113.082.112c.09.119.189.236.284.353.056.07.109.137.166.205.107.125.22.25.333.372l.164.18c.126.133.26.265.395.395.05.049.097.1.15.149.17.162.348.32.533.48l.06.052c.417.353.869.696 1.358 1.028l.11.07c.212.14.427.277.65.413.08.047.163.09.244.137.188.11.379.221.577.327.1.054.21.105.314.158.187.095.372.19.568.283.12.057.248.11.372.164.188.085.375.17.573.251.137.057.28.108.419.162.196.078.388.153.592.227.151.054.312.103.467.156.204.068.404.138.613.202.164.051.34.096.51.145.21.06.42.123.639.18.18.047.37.088.555.133.22.051.437.106.665.155.196.042.4.08.601.119.23.043.458.09.695.132.211.036.43.068.645.102.24.037.48.075.729.11.226.03.46.056.689.082.254.03.504.06.764.087.24.024.49.041.736.062l.62.047c.19-4.355-.156-11.79-4.147-15.772a11.547 11.547 0 0 1-6.52 1.996c-.361 0-.735-.02-1.084-.051a11.548 11.548 0 0 1-5.966-2.326zm-7.251.008c-2.364 1.738-5.329 2.69-8.392 2.69-2.482 0-4.893-.62-6.99-1.791-.925.86-1.703 1.914-2.315 3.138l.044.137.058.17c.021.066.047.134.072.2a7.984 7.984 0 0 0 .221.556c.028.067.06.136.09.202.027.061.053.122.082.183l.1.202c.03.062.062.123.094.186.034.065.072.131.108.198.034.063.068.126.104.188.039.067.081.135.122.202.036.063.074.124.112.186l.132.202c.04.061.08.124.123.187l.143.198.138.19c.049.066.102.131.153.198.049.064.098.127.149.19.053.067.112.131.168.198.053.063.104.124.159.186.057.067.121.134.183.2l.17.183c.066.07.136.139.206.207.057.057.113.115.172.172a24.563 24.563 0 0 0 .493.445c.113.097.226.194.345.291.06.05.125.097.187.147.091.072.18.144.276.215l.217.156c.091.066.18.133.276.198.077.051.157.102.234.154.096.064.191.13.291.192.083.051.168.1.25.152.103.063.205.126.31.187.086.051.178.1.267.15.106.06.21.12.32.179.094.05.192.097.288.146.11.057.22.116.336.172.097.047.2.093.3.14.118.056.235.11.359.166.102.046.208.09.314.135.126.051.251.107.379.158.108.044.22.086.331.13.132.049.264.102.4.152.112.042.23.081.344.121.14.05.278.1.423.147.119.04.242.078.363.116l.44.137c.126.038.256.074.383.11.153.044.306.088.463.13.13.036.264.068.398.103.161.04.323.081.489.12.134.032.274.062.412.093.17.038.34.076.514.112.14.03.285.057.428.086.18.036.359.07.542.102.146.025.295.052.446.076a24.23 24.23 0 0 0 1.03.16c.116.017.23.033.347.048.117-3.63.793-8.603 3.233-12.588a11.193 11.193 0 0 0-1.834-1.696zM58.999 8C64.515 8 69 12.71 69 18.499 69 24.29 64.513 29 58.999 29 53.483 29 48.998 24.29 49 18.499 49 12.709 53.485 8 58.999 8zm12.044 9.535c.507-5.757 5.286-10.019 10.877-9.49 5.491.531 9.544 5.656 9.037 11.42C90.48 24.9 86.204 29 81.011 29c-.306 0-.616-.015-.929-.045-2.659-.257-5.065-1.589-6.773-3.746-1.706-2.156-2.511-4.882-2.266-7.674zM59 8.795c-5.098 0-9.244 4.351-9.244 9.706 0 5.353 4.146 9.707 9.244 9.707s9.244-4.354 9.244-9.707c0-5.353-4.146-9.707-9.244-9.707zm21.99-.001c-4.8 0-8.751 3.789-9.193 8.813-.226 2.582.517 5.104 2.095 7.097 1.579 1.994 3.802 3.223 6.26 3.461 5.155.492 9.587-3.45 10.054-8.773.468-5.327-3.28-10.063-8.356-10.555a9.008 9.008 0 0 0-.86-.043z" id="Users-app-logo"/></g></g></g></svg>